<?xml version="1.0" encoding="UTF-8" standalone="no"?>
<!-- Created with Inkscape (http://www.inkscape.org/) -->

<svg
   xmlns:dc="http://purl.org/dc/elements/1.1/"
   xmlns:cc="http://creativecommons.org/ns#"
   xmlns:rdf="http://www.w3.org/1999/02/22-rdf-syntax-ns#"
   xmlns:svg="http://www.w3.org/2000/svg"
   xmlns="http://www.w3.org/2000/svg"
   xmlns:sodipodi="http://sodipodi.sourceforge.net/DTD/sodipodi-0.dtd"
   xmlns:inkscape="http://www.inkscape.org/namespaces/inkscape"
   width="343pt"
   height="340pt"
   id="svg3047"
   version="1.1"
   inkscape:version="0.48.4 r9939"
   sodipodi:docname="Новый документ 4">
  <defs
     id="defs3049" />
  <sodipodi:namedview
     pagecolor="#ffffff"
     bordercolor="#666666"
     borderopacity="1.0"
     inkscape:pageopacity="0.0"
     inkscape:pageshadow="2"
     inkscape:zoom="1.4142136"
     inkscape:cx="26.038232"
     inkscape:cy="111.74358"
     inkscape:document-units="pt"
     inkscape:current-layer="layer1"
     id="namedview3051"
     showgrid="false"
     inkscape:object-nodes="true"
     inkscape:snap-midpoints="true"
     inkscape:window-width="1916"
     inkscape:window-height="1036"
     inkscape:window-x="0"
     inkscape:window-y="42"
     inkscape:window-maximized="0" />
  <metadata
     id="metadata3053">
    <rdf:RDF>
      <cc:Work
         rdf:about="">
        <dc:format>image/svg+xml</dc:format>
        <dc:type
           rdf:resource="http://purl.org/dc/dcmitype/StillImage" />
        <dc:title></dc:title>
      </cc:Work>
    </rdf:RDF>
  </metadata>
  <g
     inkscape:label="Layer 1"
     inkscape:groupmode="layer"
     id="layer1">
    <g
       style="font-size:73.64286804px;font-style:normal;font-variant:normal;font-weight:300;font-stretch:normal;text-align:start;line-height:125%;letter-spacing:0px;word-spacing:0px;writing-mode:lr-tb;text-anchor:start;fill:#000000;fill-opacity:1;stroke:none;font-family:Clear Sans Thin;-inkscape-font-specification:'Clear Sans Thin, Light'"
       id="text3021"
       transform="translate(12.783693,-0.02601624)">
      <path
         d="m 100.11446,221.66994 -12.801208,-21.79081 -12.225867,0 0,21.79081 -3.092425,0 0,-49.76647 12.801202,0 c 2.684873,5e-5 5.034155,0.25176 7.047852,0.75513 2.013643,0.47949 3.691701,1.25859 5.034181,2.33729 1.366382,1.0788 2.385212,2.48118 3.056465,4.20714 0.67119,1.72605 1.0068,3.82362 1.00684,6.29273 -4e-5,2.13356 -0.21579,3.97943 -0.64725,5.53759 -0.431543,1.55823 -1.090783,2.90068 -1.977723,4.02735 -0.86303,1.10275 -1.953768,2.00171 -3.272212,2.69688 -1.318505,0.69522 -2.864716,1.22261 -4.638638,1.58217 l 13.556323,22.33019 -3.84754,0 m -2.553055,-36.2461 c -3.3e-5,-1.82186 -0.203797,-3.40403 -0.611293,-4.74651 -0.407561,-1.36638 -1.102757,-2.49308 -2.085589,-3.3801 -0.982894,-0.88693 -2.301368,-1.54616 -3.955428,-1.97771 -1.63014,-0.43145 -3.691755,-0.64721 -6.18485,-0.64725 l -9.63686,0 0,22.4021 9.63686,0 c 2.469123,3e-5 4.518751,-0.21573 6.148892,-0.64725 1.654059,-0.43148 2.972534,-1.11469 3.955427,-2.04963 1.006805,-0.93489 1.713987,-2.13351 2.121548,-3.59584 0.407496,-1.48625 0.61126,-3.27219 0.611293,-5.35781"
         id="path3136"
         inkscape:connector-curvature="0" />
      <path
         d="m 124.74129,174.66557 0,46.99767 -3.09242,0 0,-46.99767 -17.69155,0 0,-2.7688 38.43956,0 0,2.7688 -17.65559,0"
         id="path3138"
         inkscape:connector-curvature="0" />
      <path
         d="m 181.54806,221.67746 0,-46.4583 -15.3902,31.78726 -2.37326,0 -15.24638,-31.78726 0,46.4583 -3.09242,0 0,-49.76647 4.78247,0 14.88679,30.92425 14.707,-30.92425 4.81843,0 0,49.76647 -3.09243,0"
         id="path3140"
         inkscape:connector-curvature="0" />
      <path
         d="m 190.78735,174.66558 0,18.55455 21.57506,0 0,2.80476 -21.57506,0 0,25.63836 -3.09243,0 0,-49.76647 28.19141,0 0,2.7688 -25.09898,0"
         id="path3142"
         inkscape:connector-curvature="0" />
      <path
         d="m 247.43966,186.96334 c -3e-5,3.06849 -0.35962,5.6455 -1.07875,7.73106 -0.69523,2.08562 -1.73803,3.76368 -3.12839,5.03418 -1.39042,1.27056 -3.11642,2.19349 -5.17801,2.7688 -2.06164,0.55139 -4.43489,0.82707 -7.11977,0.82705 l -8.84577,0 0,18.3388 -3.09243,0 0,-49.76647 12.8012,0 c 2.90063,5e-5 5.3458,0.37162 7.33552,1.11471 1.98967,0.74319 3.59582,1.78598 4.81843,3.12838 1.24653,1.31852 2.1335,2.90069 2.66093,4.74652 0.55132,1.8459 0.82701,3.87156 0.82704,6.07697 m -3.41605,0.25171 c -3e-5,-2.34925 -0.2877,-4.31497 -0.863,-5.89718 -0.57537,-1.6061 -1.39043,-2.90061 -2.44518,-3.88351 -1.0548,-0.98282 -2.34931,-1.69 -3.88351,-2.12155 -1.51027,-0.43145 -3.2123,-0.64721 -5.10609,-0.64725 l -9.63686,0 0,25.85411 8.70194,0 c 2.32529,2e-5 4.32697,-0.21573 6.00506,-0.64725 1.67803,-0.45545 3.04445,-1.19859 4.09926,-2.22942 1.07872,-1.03079 1.8698,-2.39721 2.37325,-4.09927 0.50339,-1.702 0.7551,-3.81156 0.75513,-6.32868"
         id="path3144"
         inkscape:connector-curvature="0" />
      <path
         d="m 253.62435,200.98096 c -1e-5,3.38011 0.17979,6.23281 0.53938,8.55811 0.38355,2.30135 0.98285,4.1592 1.79792,5.57356 0.83902,1.39039 1.92976,2.39723 3.27222,3.0205 1.3664,0.59931 3.03247,0.89897 4.99822,0.89897 1.15065,0 2.19344,-0.0959 3.12838,-0.28767 0.95887,-0.19178 1.84584,-0.5154 2.66093,-0.97088 0.839,-0.45547 1.6181,-1.05478 2.33729,-1.79792 0.71915,-0.76711 1.42633,-1.71401 2.12155,-2.84072 l 2.37326,1.61813 c -0.64728,1.07876 -1.35447,2.04964 -2.12155,2.91263 -0.74317,0.83904 -1.61816,1.5582 -2.62496,2.15751 -0.98289,0.59931 -2.12158,1.05478 -3.41606,1.36642 -1.27055,0.33561 -2.75683,0.50342 -4.45884,0.50342 -2.3493,0 -4.39893,-0.3476 -6.14889,-1.0428 -1.72602,-0.69519 -3.16435,-1.82189 -4.31501,-3.38009 -1.12671,-1.55819 -1.97772,-3.58385 -2.55305,-6.07697 -0.55137,-2.51708 -0.82705,-5.57354 -0.82705,-9.1694 0,-3.38007 0.26369,-6.34065 0.79109,-8.88174 0.55135,-2.54103 1.40237,-4.65059 2.55305,-6.32868 1.15066,-1.67802 2.62495,-2.93657 4.42288,-3.77563 1.79791,-0.839 3.95541,-1.25851 6.47252,-1.25855 4.45882,4e-5 7.74302,1.40242 9.85261,4.20714 2.10953,2.80479 3.16431,6.95199 3.16434,12.44161 l 0,2.55305 -24.02023,0 m 20.92781,-2.62496 c -0.048,-2.58899 -0.2877,-4.77046 -0.71917,-6.54444 -0.43153,-1.77392 -1.06679,-3.20027 -1.9058,-4.27905 -0.81508,-1.10269 -1.8339,-1.89378 -3.05646,-2.37326 -1.22261,-0.50338 -2.63698,-0.75509 -4.2431,-0.75512 -1.86985,3e-5 -3.476,0.27571 -4.81843,0.82704 -1.34246,0.5514 -2.45717,1.40241 -3.34413,2.55305 -0.86301,1.12673 -1.53424,2.56506 -2.01367,4.31501 -0.45549,1.75 -0.73117,3.83559 -0.82705,6.25677 l 20.92781,0"
         id="path3146"
         inkscape:connector-curvature="0" />
      <path
         d="m 315.07034,221.68277 -3.23626,0 -9.74474,-33.72901 -9.78069,33.72901 -3.30818,0 -8.27044,-37.7204 3.16435,0 7.01189,33.15368 9.56494,-33.15368 3.30818,0 9.67282,33.15368 6.8321,-33.15368 3.02051,0 -8.23448,37.7204"
         id="path3148"
         inkscape:connector-curvature="0" />
      <rect
         style="fill:#de87aa"
         id="rect3152"
         width="3.0957031"
         height="274.58511"
         x="222.87431"
         y="-330.76453"
         transform="matrix(0,1,-1,0,0,0)" />
      <rect
         style="font-size:73.64286804px;font-style:normal;font-variant:normal;font-weight:300;font-stretch:normal;text-align:start;line-height:125%;letter-spacing:0px;word-spacing:0px;writing-mode:lr-tb;text-anchor:start;fill:#ffd5e5;fill-opacity:1;stroke:none;font-family:Clear Sans Thin;-inkscape-font-specification:'Clear Sans Thin, Light'"
         id="rect3152-9"
         width="3.0957031"
         height="274.58511"
         x="227.18204"
         y="-330.69101"
         transform="matrix(0,1,-1,0,0,0)" />
    </g>
    <rect
       id="rect3085"
       width="17.5"
       height="17.5"
       x="139.47629"
       y="231.48822"
       style="fill:#ff5555" />
    <rect
       id="rect3085-7"
       width="17.5"
       height="17.5"
       x="158.17781"
       y="231.48822"
       style="fill:#ff8080" />
    <rect
       id="rect3085-2"
       width="17.5"
       height="17.5"
       x="188.1138"
       y="231.51424"
       style="fill:#55ff55" />
    <rect
       id="rect3085-7-5"
       width="17.5"
       height="17.5"
       x="206.81532"
       y="231.51424"
       style="fill:#aaffaa" />
    <rect
       id="rect3085-4"
       width="17.5"
       height="17.5"
       x="236.75133"
       y="231.54024"
       style="fill:#2a7fff" />
    <rect
       id="rect3085-7-3"
       width="17.5"
       height="17.5"
       x="255.45285"
       y="231.54024"
       style="fill:#aaccff" />
  </g>
</svg>
